<svg class="border shadow-md" viewBox="0 0 1081.52 540.76" style="width: 1081.52px; height: 540.76px;" xmlns="http://www.w3.org/2000/svg" preserveAspectRatio="none"><rect class="bg" id="bg" x="0" y="0" width="1081.52" height="540.76" fill="#ffffff"></rect><g transform="rotate(0 540.76 270.38)"><path d="M -160.19 -6.05 S -90.09 -32.05
            0.00 -6.05 70.09 -24.08
            160.19 -6.05 174.38 -24.08
            320.38 -6.05 362.57 -24.08
            480.57 -6.05 550.66 -26.05
            640.76 -6.05 667.95 -31.05
            800.95 -6.05 795.14 -24.08
            961.14 -6.05 1011.33 -24.08
            1121.33 -6.05 1191.42 -37.05
            1281.52 -6.05 1351.62 -24.08
            1441.71 -6.05 h 110 V 740.76 H -160.19 Z" fill="#1BA4FF" id="-1"></path><path d="M -160.19 30.00 S -90.09 11.97
            0.00 30.00 7.19 2.00
            160.19 30.00 203.38 10.00
            320.38 30.00 390.48 2.00
            480.57 30.00 550.66 11.97
            640.76 30.00 638.95 7.00
            800.95 30.00 871.05 -2.00
            961.14 30.00 1031.23 11.97
            1121.33 30.00 1133.52 11.97
            1281.52 30.00 1351.62 -1.00
            1441.71 30.00 h 110 V 740.76 H -160.19 Z" fill="#1c9bf6" id="0"></path><path id="1" d="M -160.19 66.05 S -90.09 48.03
            0.00 66.05 70.09 35.05
            160.19 66.05 182.38 48.03
            320.38 66.05 373.57 45.05
            480.57 66.05 550.66 48.03
            640.76 66.05 710.86 48.03
            800.95 66.05 871.05 47.05
            961.14 66.05 976.33 48.03
            1121.33 66.05 1191.42 38.05
            1281.52 66.05 1316.71 38.05
            1441.71 66.05 h 110 V 740.76 H -160.19 Z" fill="#1d92ed"></path><path id="2" d="M -160.19 102.10 S -90.09 84.08
            0.00 102.10 70.09 71.10
            160.19 102.10 230.28 70.10
            320.38 102.10 347.57 84.08
            480.57 102.10 550.66 74.10
            640.76 102.10 661.95 69.10
            800.95 102.10 871.05 84.08
            961.14 102.10 1031.23 84.08
            1121.33 102.10 1191.42 69.10
            1281.52 102.10 1351.62 77.10
            1441.71 102.10 h 110 V 740.76 H -160.19 Z" fill="#1e89e4"></path><path id="3" d="M -160.19 138.15 S -90.09 120.13
            0.00 138.15 60.19 120.13
            160.19 138.15 230.28 106.15
            320.38 138.15 321.57 120.13
            480.57 138.15 495.76 120.13
            640.76 138.15 697.95 120.13
            800.95 138.15 818.14 120.13
            961.14 138.15 1027.33 107.15
            1121.33 138.15 1191.42 120.13
            1281.52 138.15 1351.62 120.13
            1441.71 138.15 h 110 V 740.76 H -160.19 Z" fill="#1f80db"></path><path id="4" d="M -160.19 174.20 S -90.09 156.18
            0.00 174.20 25.19 151.20
            160.19 174.20 229.38 152.20
            320.38 174.20 390.48 155.20
            480.57 174.20 548.76 145.20
            640.76 174.20 632.95 150.20
            800.95 174.20 810.14 154.20
            961.14 174.20 971.33 156.18
            1121.33 174.20 1191.42 156.18
            1281.52 174.20 1351.62 154.20
            1441.71 174.20 h 110 V 740.76 H -160.19 Z" fill="#2077d2"></path><path id="5" d="M -160.19 210.25 S -90.09 192.23
            0.00 210.25 30.19 192.23
            160.19 210.25 182.38 189.25
            320.38 210.25 362.57 192.23
            480.57 210.25 550.66 178.25
            640.76 210.25 637.95 192.23
            800.95 210.25 869.14 192.23
            961.14 210.25 955.33 192.23
            1121.33 210.25 1140.52 192.23
            1281.52 210.25 1304.71 175.25
            1441.71 210.25 h 110 V 740.76 H -160.19 Z" fill="#216ec9"></path><path id="6" d="M -160.19 246.30 S -101.00 228.28
            0.00 246.30 1.19 227.30
            160.19 246.30 172.38 218.30
            320.38 246.30 390.48 223.30
            480.57 246.30 550.66 215.30
            640.76 246.30 663.95 228.28
            800.95 246.30 831.14 228.28
            961.14 246.30 1031.23 224.30
            1121.33 246.30 1191.42 212.30
            1281.52 246.30 1323.71 218.30
            1441.71 246.30 h 110 V 740.76 H -160.19 Z" fill="#2265c0"></path><path id="7" d="M -160.19 282.35 S -90.09 264.33
            0.00 282.35 70.09 264.33
            160.19 282.35 191.38 250.35
            320.38 282.35 370.57 254.35
            480.57 282.35 478.76 247.35
            640.76 282.35 710.86 263.35
            800.95 282.35 871.05 251.35
            961.14 282.35 1031.23 264.33
            1121.33 282.35 1176.52 264.33
            1281.52 282.35 1279.71 264.33
            1441.71 282.35 h 110 V 740.76 H -160.19 Z" fill="#235cb7"></path><path id="8" d="M -160.19 318.41 S -90.09 299.41
            0.00 318.41 11.19 300.38
            160.19 318.41 230.28 298.41
            320.38 318.41 331.57 300.38
            480.57 318.41 550.66 294.41
            640.76 318.41 701.95 287.41
            800.95 318.41 871.05 290.41
            961.14 318.41 1031.23 284.41
            1121.33 318.41 1139.52 300.38
            1281.52 318.41 1351.62 293.41
            1441.71 318.41 h 110 V 740.76 H -160.19 Z" fill="#2453ae"></path><path id="9" d="M -160.19 354.46 S -90.09 332.46
            0.00 354.46 1.19 336.43
            160.19 354.46 226.38 326.46
            320.38 354.46 360.57 324.46
            480.57 354.46 476.76 336.43
            640.76 354.46 674.95 336.43
            800.95 354.46 871.05 331.46
            961.14 354.46 1031.23 336.43
            1121.33 354.46 1118.52 336.43
            1281.52 354.46 1351.62 336.43
            1441.71 354.46 h 110 V 740.76 H -160.19 Z" fill="#254aa5"></path><path id="10" d="M -160.19 390.51 S -90.09 362.51
            0.00 390.51 70.09 356.51
            160.19 390.51 170.38 365.51
            320.38 390.51 342.57 372.48
            480.57 390.51 550.66 372.48
            640.76 390.51 679.95 367.51
            800.95 390.51 871.05 358.51
            961.14 390.51 1007.33 372.48
            1121.33 390.51 1131.52 359.51
            1281.52 390.51 1351.62 372.48
            1441.71 390.51 h 110 V 740.76 H -160.19 Z" fill="#26419c"></path><path id="11" d="M -160.19 426.56 S -90.09 408.53
            0.00 426.56 70.09 408.53
            160.19 426.56 228.38 408.53
            320.38 426.56 390.48 408.53
            480.57 426.56 549.76 408.53
            640.76 426.56 710.86 398.56
            800.95 426.56 871.05 399.56
            961.14 426.56 1031.23 393.56
            1121.33 426.56 1127.52 408.53
            1281.52 426.56 1351.62 393.56
            1441.71 426.56 h 110 V 740.76 H -160.19 Z" fill="#273893"></path><path id="12" d="M -160.19 462.61 S -125.00 444.58
            0.00 462.61 70.09 444.58
            160.19 462.61 230.28 444.58
            320.38 462.61 390.48 438.61
            480.57 462.61 550.66 444.58
            640.76 462.61 710.86 444.58
            800.95 462.61 795.14 438.61
            961.14 462.61 1031.23 444.58
            1121.33 462.61 1171.52 444.58
            1281.52 462.61 1351.62 428.61
            1441.71 462.61 h 110 V 740.76 H -160.19 Z" fill="#282f8a"></path><path id="13" d="M -160.19 498.66 S -90.09 480.63
            0.00 498.66 46.19 480.63
            160.19 498.66 196.38 472.66
            320.38 498.66 340.57 480.63
            480.57 498.66 550.66 480.63
            640.76 498.66 710.86 480.63
            800.95 498.66 871.05 480.63
            961.14 498.66 1031.23 480.63
            1121.33 498.66 1166.52 474.66
            1281.52 498.66 1351.62 465.66
            1441.71 498.66 h 110 V 740.76 H -160.19 Z" fill="#292681"></path><path id="14" d="M -160.19 534.71 S -143.00 512.71
            0.00 534.71 -6.81 500.71
            160.19 534.71 183.38 516.68
            320.38 534.71 390.48 516.68
            480.57 534.71 550.66 516.68
            640.76 534.71 685.95 501.71
            800.95 534.71 837.14 501.71
            961.14 534.71 1031.23 502.71
            1121.33 534.71 1191.42 508.71
            1281.52 534.71 1351.62 516.68
            1441.71 534.71 h 110 V 740.76 H -160.19 Z" fill="#2a1d78"></path></g></svg>
